<?xml version="1.0" encoding="UTF-8"?>
<svg width="500" height="200" viewBox="0 0 500 200" xmlns="http://www.w3.org/2000/svg">
  <!-- The ReachImpact Logo without background -->
  
  <!-- Profile and Brain Group -->
  <g>
    <!-- Face/Profile -->
    <path d="M70,90 C60,95 50,85 45,75 C40,65 40,50 45,40 C50,30 60,25 70,30 C73,32 76,35 80,40 C80,40 77,45 75,50 C73,55 75,65 80,70 C85,75 80,85 70,90 Z" fill="#462B78"/>
    
    <!-- Hair/Waves -->
    <path d="M44,38 C38,32 30,32 25,38 C20,44 22,55 30,58 C38,61 42,56 44,50 C46,44 50,44 44,38 Z" fill="#462B78"/>
    <path d="M25,65 C19,62 15,65 15,70 C15,75 18,80 24,78 C30,76 30,68 25,65 Z" fill="#462B78"/>
    
    <!-- Brain -->
    <path d="M76,36 C82,30 88,25 94,25 C100,25 104,30 106,35 C108,40 110,48 106,55 C102,62 95,65 88,60 C81,55 76,50 72,45 C68,40 70,42 76,36 Z" fill="#9D3FCE"/>
    <path d="M85,26 C92,20 98,18 105,20 C112,22 115,28 112,35 C109,42 102,44 96,38 C90,32 78,32 85,26 Z" fill="#9D3FCE"/>
    <path d="M90,42 C95,38 104,38 110,42 C116,46 118,52 115,58 C112,64 105,62 98,58 C91,54 85,46 90,42 Z" fill="#9D3FCE"/>
  </g>
  
  <!-- Headset -->
  <g>
    <!-- Ear cup -->
    <circle cx="100" cy="60" r="14" fill="#10EAFA"/>
    
    <!-- Headband -->
    <path d="M100,74 C91,74 85,68 85,60 C85,52 91,46 100,46" stroke="#10EAFA" stroke-width="4" fill="none"/>
    
    <!-- Microphone arm -->
    <path d="M95,74 L90,90" stroke="#10EAFA" stroke-width="3" fill="none"/>
    <path d="M90,90 L102,92" stroke="#10EAFA" stroke-width="3" fill="none"/>
  </g>
  
  <!-- "ReachImpact" text -->
  <path d="M170,60 C170,63 171,66 173,70 C175,74 178,76 181,76 C184,76 186,75 188,73 C190,71 191,68 191,65 C191,62 190,60 188,58 C186,56 183,55 180,55 L177,55 L177,50 L180,50 C182,50 184,49 186,48 C188,47 189,45 189,42 C189,39 188,37 186,35 C184,33 182,32 179,32 C177,32 175,33 173,35 C171,37 170,40 170,44 L165,44 C165,38 167,34 170,31 C173,28 176,26 180,26 C185,26 189,28 192,31 C195,34 196,37 196,42 C196,45 195,48 193,50 C191,52 189,54 186,55 C190,56 193,58 195,60 C197,62 198,66 198,70 C198,75 196,79 193,83 C190,87 186,89 181,89 C176,89 172,87 169,84 C166,81 164,76 164,70 L170,70 Z" fill="#462B78"/>
  <path d="M206,88 L206,28 L225,28 C230,28 235,30 238,33 C241,36 243,40 243,45 C243,50 241,54 238,57 C235,60 230,62 225,62 L214,62 L214,88 L206,88 Z M214,55 L225,55 C228,55 230,54 232,52 C234,50 235,48 235,45 C235,42 234,39 232,37 C230,35 228,34 225,34 L214,34 L214,55 Z" fill="#462B78"/>
  <path d="M271,88 L271,58 C271,53 270,49 268,46 C266,43 263,42 259,42 C255,42 252,43 250,46 C248,49 247,52 247,58 L247,88 L240,88 L240,28 L247,28 L247,34 C248,32 250,30 253,29 C256,28 258,27 260,27 C264,27 268,28 271,30 C274,32 276,35 277,38 C278,41 279,45 279,51 L279,88 L271,88 Z" fill="#462B78"/>
  <path d="M308,88 L287,28 L295,28 L311,77 L327,28 L335,28 L314,88 L308,88 Z" fill="#462B78"/>
  <path d="M363,88 L363,28 L371,28 L371,88 L363,88 Z" fill="#462B78"/>
  <path d="M400,88 L400,28 L408,28 L408,82 L433,82 L433,88 L400,88 Z" fill="#462B78"/>
  <path d="M439,88 L439,28 L447,28 L447,82 L472,82 L472,88 L439,88 Z" fill="#462B78"/>
  <path d="M485,88 L485,28 L493,28 L493,88 L485,88 Z" fill="#462B78"/>
</svg>